<mxfile host="app.diagrams.net" modified="2021-02-24T13:50:31.088Z" agent="5.0 (Windows NT 10.0; Win64; x64) AppleWebKit/537.36 (KHTML, like Gecko) Chrome/88.0.4324.150 Safari/537.36 OPR/74.0.3911.107" etag="gWZokpqeD9XL4DOK-Dp_" version="14.4.2" type="github">
  <diagram id="R2lEEEUBdFMjLlhIrx00" name="Page-1">
    <mxGraphModel dx="1155" dy="660" grid="1" gridSize="10" guides="1" tooltips="1" connect="1" arrows="1" fold="1" page="1" pageScale="1" pageWidth="850" pageHeight="1100" math="0" shadow="0" extFonts="Permanent Marker^https://fonts.googleapis.com/css?family=Permanent+Marker">
      <root>
        <mxCell id="0" />
        <mxCell id="1" parent="0" />
        <mxCell id="HfCs5Erz4kINuEijR7L9-4" style="edgeStyle=orthogonalEdgeStyle;rounded=0;orthogonalLoop=1;jettySize=auto;html=1;exitX=0.5;exitY=1;exitDx=0;exitDy=0;entryX=0.5;entryY=0;entryDx=0;entryDy=0;shape=link;" parent="1" source="HfCs5Erz4kINuEijR7L9-1" target="HfCs5Erz4kINuEijR7L9-2" edge="1">
          <mxGeometry relative="1" as="geometry" />
        </mxCell>
        <mxCell id="HfCs5Erz4kINuEijR7L9-1" value="&lt;font style=&quot;font-size: 24px&quot;&gt;Sko&lt;/font&gt;" style="rounded=0;whiteSpace=wrap;html=1;" parent="1" vertex="1">
          <mxGeometry x="350" y="110" width="120" height="60" as="geometry" />
        </mxCell>
        <mxCell id="HfCs5Erz4kINuEijR7L9-2" value="&lt;font style=&quot;font-size: 24px&quot;&gt;Ã„r&lt;/font&gt;" style="rhombus;whiteSpace=wrap;html=1;" parent="1" vertex="1">
          <mxGeometry x="367.5" y="250" width="85" height="80" as="geometry" />
        </mxCell>
        <mxCell id="HfCs5Erz4kINuEijR7L9-18" style="edgeStyle=orthogonalEdgeStyle;shape=link;rounded=0;orthogonalLoop=1;jettySize=auto;html=1;exitX=0.5;exitY=1;exitDx=0;exitDy=0;entryX=0.5;entryY=0;entryDx=0;entryDy=0;" parent="1" source="HfCs5Erz4kINuEijR7L9-3" target="HfCs5Erz4kINuEijR7L9-17" edge="1">
          <mxGeometry relative="1" as="geometry" />
        </mxCell>
        <mxCell id="HfCs5Erz4kINuEijR7L9-3" value="&lt;font style=&quot;font-size: 24px&quot;&gt;Kategori&lt;/font&gt;" style="rounded=0;whiteSpace=wrap;html=1;" parent="1" vertex="1">
          <mxGeometry x="350" y="460" width="120" height="60" as="geometry" />
        </mxCell>
        <mxCell id="HfCs5Erz4kINuEijR7L9-5" value="" style="endArrow=none;html=1;entryX=0.5;entryY=1;entryDx=0;entryDy=0;exitX=0.5;exitY=0;exitDx=0;exitDy=0;" parent="1" source="HfCs5Erz4kINuEijR7L9-3" target="HfCs5Erz4kINuEijR7L9-2" edge="1">
          <mxGeometry width="50" height="50" relative="1" as="geometry">
            <mxPoint x="280" y="500" as="sourcePoint" />
            <mxPoint x="330" y="450" as="targetPoint" />
          </mxGeometry>
        </mxCell>
        <mxCell id="HfCs5Erz4kINuEijR7L9-8" value="&lt;font style=&quot;font-size: 18px&quot;&gt;&lt;b&gt;N&lt;/b&gt;&lt;/font&gt;" style="text;html=1;strokeColor=none;fillColor=none;align=center;verticalAlign=middle;whiteSpace=wrap;rounded=0;" parent="1" vertex="1">
          <mxGeometry x="380" y="210" width="30" height="20" as="geometry" />
        </mxCell>
        <mxCell id="HfCs5Erz4kINuEijR7L9-9" value="&lt;font style=&quot;font-size: 18px&quot;&gt;&lt;b&gt;M&lt;/b&gt;&lt;/font&gt;" style="text;html=1;strokeColor=none;fillColor=none;align=center;verticalAlign=middle;whiteSpace=wrap;rounded=0;" parent="1" vertex="1">
          <mxGeometry x="380" y="380" width="30" height="20" as="geometry" />
        </mxCell>
        <mxCell id="HfCs5Erz4kINuEijR7L9-10" value="" style="verticalLabelPosition=bottom;verticalAlign=top;html=1;shape=mxgraph.basic.arc;startAngle=0.3;endAngle=0.1;rotation=287;direction=south;" parent="1" vertex="1">
          <mxGeometry x="250" y="635" width="40" height="40" as="geometry" />
        </mxCell>
        <mxCell id="HfCs5Erz4kINuEijR7L9-11" value="" style="verticalLabelPosition=bottom;verticalAlign=top;html=1;shape=mxgraph.basic.arc;startAngle=0.3;endAngle=0.1;rotation=287;" parent="1" vertex="1">
          <mxGeometry x="90.00352921371544" y="60.00352921371544" width="40" height="40" as="geometry" />
        </mxCell>
        <mxCell id="HfCs5Erz4kINuEijR7L9-12" value="" style="endArrow=none;html=1;exitX=0.021;exitY=0.639;exitDx=0;exitDy=0;exitPerimeter=0;entryX=1;entryY=0.5;entryDx=0;entryDy=0;" parent="1" source="HfCs5Erz4kINuEijR7L9-10" target="HfCs5Erz4kINuEijR7L9-31" edge="1">
          <mxGeometry width="50" height="50" relative="1" as="geometry">
            <mxPoint x="310" y="800" as="sourcePoint" />
            <mxPoint x="170" y="655" as="targetPoint" />
            <Array as="points">
              <mxPoint x="220" y="655" />
            </Array>
          </mxGeometry>
        </mxCell>
        <mxCell id="HfCs5Erz4kINuEijR7L9-13" value="" style="endArrow=none;html=1;entryX=0.032;entryY=0.634;entryDx=0;entryDy=0;entryPerimeter=0;exitX=0;exitY=0.5;exitDx=0;exitDy=0;" parent="1" source="HfCs5Erz4kINuEijR7L9-17" target="HfCs5Erz4kINuEijR7L9-10" edge="1">
          <mxGeometry width="50" height="50" relative="1" as="geometry">
            <mxPoint x="350" y="730" as="sourcePoint" />
            <mxPoint x="290" y="700" as="targetPoint" />
          </mxGeometry>
        </mxCell>
        <mxCell id="HfCs5Erz4kINuEijR7L9-14" value="" style="verticalLabelPosition=bottom;verticalAlign=top;html=1;shape=mxgraph.basic.arc;startAngle=0.3;endAngle=0.1;rotation=287;" parent="1" vertex="1">
          <mxGeometry x="390.0035292137154" y="740.0035292137154" width="40" height="40" as="geometry" />
        </mxCell>
        <mxCell id="HfCs5Erz4kINuEijR7L9-15" value="" style="endArrow=none;html=1;entryX=0.021;entryY=0.639;entryDx=0;entryDy=0;entryPerimeter=0;exitX=0.5;exitY=0;exitDx=0;exitDy=0;" parent="1" source="HfCs5Erz4kINuEijR7L9-33" target="HfCs5Erz4kINuEijR7L9-14" edge="1">
          <mxGeometry width="50" height="50" relative="1" as="geometry">
            <mxPoint x="410.0035292137152" y="864.9735292137154" as="sourcePoint" />
            <mxPoint x="430.0035292137154" y="844.9735292137154" as="targetPoint" />
          </mxGeometry>
        </mxCell>
        <mxCell id="HfCs5Erz4kINuEijR7L9-16" value="" style="endArrow=none;html=1;exitX=0.032;exitY=0.634;exitDx=0;exitDy=0;exitPerimeter=0;entryX=0.5;entryY=1;entryDx=0;entryDy=0;" parent="1" source="HfCs5Erz4kINuEijR7L9-14" target="HfCs5Erz4kINuEijR7L9-17" edge="1">
          <mxGeometry width="50" height="50" relative="1" as="geometry">
            <mxPoint x="410.0035292137154" y="740.0035292137154" as="sourcePoint" />
            <mxPoint x="410.0035292137152" y="690.0035292137154" as="targetPoint" />
          </mxGeometry>
        </mxCell>
        <mxCell id="HfCs5Erz4kINuEijR7L9-17" value="&lt;font style=&quot;font-size: 24px&quot; data-font-src=&quot;https://fonts.googleapis.com/css?family=Permanent+Marker&quot; face=&quot;Georgia&quot;&gt;&lt;b&gt;d&lt;/b&gt;&lt;/font&gt;" style="ellipse;whiteSpace=wrap;html=1;aspect=fixed;" parent="1" vertex="1">
          <mxGeometry x="385" y="630" width="50" height="50" as="geometry" />
        </mxCell>
        <mxCell id="HfCs5Erz4kINuEijR7L9-19" value="" style="verticalLabelPosition=bottom;verticalAlign=top;html=1;shape=mxgraph.basic.arc;startAngle=0.3;endAngle=0.1;rotation=287;direction=north;" parent="1" vertex="1">
          <mxGeometry x="540.0035292137154" y="635.0035292137154" width="40" height="40" as="geometry" />
        </mxCell>
        <mxCell id="HfCs5Erz4kINuEijR7L9-20" value="" style="endArrow=none;html=1;exitX=0.021;exitY=0.639;exitDx=0;exitDy=0;exitPerimeter=0;entryX=1;entryY=0.5;entryDx=0;entryDy=0;" parent="1" source="HfCs5Erz4kINuEijR7L9-19" target="HfCs5Erz4kINuEijR7L9-17" edge="1">
          <mxGeometry width="50" height="50" relative="1" as="geometry">
            <mxPoint x="604.9735292137154" y="799.9735292137154" as="sourcePoint" />
            <mxPoint x="494.9735292137152" y="654.9735292137154" as="targetPoint" />
            <Array as="points">
              <mxPoint x="514.9735292137154" y="654.9735292137154" />
            </Array>
          </mxGeometry>
        </mxCell>
        <mxCell id="HfCs5Erz4kINuEijR7L9-21" value="" style="endArrow=none;html=1;entryX=0.032;entryY=0.634;entryDx=0;entryDy=0;entryPerimeter=0;exitX=-0.004;exitY=0.416;exitDx=0;exitDy=0;exitPerimeter=0;" parent="1" source="HfCs5Erz4kINuEijR7L9-35" target="HfCs5Erz4kINuEijR7L9-19" edge="1">
          <mxGeometry width="50" height="50" relative="1" as="geometry">
            <mxPoint x="679.9735292137275" y="654.9735292137154" as="sourcePoint" />
            <mxPoint x="584.9735292137154" y="699.9735292137154" as="targetPoint" />
          </mxGeometry>
        </mxCell>
        <mxCell id="HfCs5Erz4kINuEijR7L9-22" value="" style="verticalLabelPosition=bottom;verticalAlign=top;html=1;shape=mxgraph.basic.arc;startAngle=0.3;endAngle=0.1;rotation=-30;" parent="1" vertex="1">
          <mxGeometry x="110.00352921371544" y="250.00352921371544" width="40" height="40" as="geometry" />
        </mxCell>
        <mxCell id="HfCs5Erz4kINuEijR7L9-23" value="" style="endArrow=none;html=1;entryX=0;entryY=0.615;entryDx=0;entryDy=0;entryPerimeter=0;" parent="1" target="HfCs5Erz4kINuEijR7L9-22" edge="1">
          <mxGeometry width="50" height="50" relative="1" as="geometry">
            <mxPoint x="60" y="340" as="sourcePoint" />
            <mxPoint x="110" y="290" as="targetPoint" />
          </mxGeometry>
        </mxCell>
        <mxCell id="HfCs5Erz4kINuEijR7L9-24" value="" style="endArrow=none;html=1;exitX=-0.002;exitY=0.619;exitDx=0;exitDy=0;exitPerimeter=0;" parent="1" source="HfCs5Erz4kINuEijR7L9-22" edge="1">
          <mxGeometry width="50" height="50" relative="1" as="geometry">
            <mxPoint x="160" y="230" as="sourcePoint" />
            <mxPoint x="210" y="190" as="targetPoint" />
          </mxGeometry>
        </mxCell>
        <mxCell id="HfCs5Erz4kINuEijR7L9-25" value="" style="verticalLabelPosition=bottom;verticalAlign=top;html=1;shape=mxgraph.basic.arc;startAngle=0.3;endAngle=0.1;rotation=-20;" parent="1" vertex="1">
          <mxGeometry x="280.00050807568874" y="710.0005080756887" width="40" height="40" as="geometry" />
        </mxCell>
        <mxCell id="HfCs5Erz4kINuEijR7L9-26" value="" style="endArrow=none;html=1;entryX=0;entryY=0.615;entryDx=0;entryDy=0;entryPerimeter=0;exitX=1;exitY=0;exitDx=0;exitDy=0;" parent="1" source="HfCs5Erz4kINuEijR7L9-32" target="HfCs5Erz4kINuEijR7L9-25" edge="1">
          <mxGeometry width="50" height="50" relative="1" as="geometry">
            <mxPoint x="190" y="800" as="sourcePoint" />
            <mxPoint x="247.31697886197333" y="787.3169788619733" as="targetPoint" />
          </mxGeometry>
        </mxCell>
        <mxCell id="HfCs5Erz4kINuEijR7L9-27" value="" style="endArrow=none;html=1;exitX=-0.002;exitY=0.619;exitDx=0;exitDy=0;exitPerimeter=0;entryX=0.125;entryY=0.841;entryDx=0;entryDy=0;entryPerimeter=0;" parent="1" source="HfCs5Erz4kINuEijR7L9-25" target="HfCs5Erz4kINuEijR7L9-17" edge="1">
          <mxGeometry width="50" height="50" relative="1" as="geometry">
            <mxPoint x="297.3169788619733" y="727.3169788619733" as="sourcePoint" />
            <mxPoint x="347.3169788619733" y="687.3169788619733" as="targetPoint" />
          </mxGeometry>
        </mxCell>
        <mxCell id="HfCs5Erz4kINuEijR7L9-28" value="" style="verticalLabelPosition=bottom;verticalAlign=top;html=1;shape=mxgraph.basic.arc;startAngle=0.3;endAngle=0.1;rotation=-35;direction=north;" parent="1" vertex="1">
          <mxGeometry x="500.0042552822316" y="710.0042552822315" width="40" height="40" as="geometry" />
        </mxCell>
        <mxCell id="HfCs5Erz4kINuEijR7L9-29" value="" style="endArrow=none;html=1;entryX=0.914;entryY=0.778;entryDx=0;entryDy=0;entryPerimeter=0;exitX=0;exitY=0.615;exitDx=0;exitDy=0;exitPerimeter=0;" parent="1" source="HfCs5Erz4kINuEijR7L9-28" target="HfCs5Erz4kINuEijR7L9-17" edge="1">
          <mxGeometry width="50" height="50" relative="1" as="geometry">
            <mxPoint x="582.9507260685161" y="862.9507260685161" as="sourcePoint" />
            <mxPoint x="525.6337472065428" y="875.6337472065428" as="targetPoint" />
          </mxGeometry>
        </mxCell>
        <mxCell id="HfCs5Erz4kINuEijR7L9-30" value="" style="endArrow=none;html=1;entryX=-0.002;entryY=0.619;entryDx=0;entryDy=0;entryPerimeter=0;exitX=0;exitY=0;exitDx=0;exitDy=0;" parent="1" source="HfCs5Erz4kINuEijR7L9-34" target="HfCs5Erz4kINuEijR7L9-28" edge="1">
          <mxGeometry width="50" height="50" relative="1" as="geometry">
            <mxPoint x="620" y="800" as="sourcePoint" />
            <mxPoint x="632.9507260685161" y="802.9507260685161" as="targetPoint" />
          </mxGeometry>
        </mxCell>
        <mxCell id="HfCs5Erz4kINuEijR7L9-31" value="&lt;span style=&quot;line-height: 115%&quot;&gt;&lt;font style=&quot;font-size: 24px&quot;&gt;Utomhus&lt;/font&gt;&lt;/span&gt;" style="rounded=0;whiteSpace=wrap;html=1;" parent="1" vertex="1">
          <mxGeometry x="50" y="625" width="120" height="60" as="geometry" />
        </mxCell>
        <mxCell id="HfCs5Erz4kINuEijR7L9-32" value="&lt;span style=&quot;font-size: 24px&quot;&gt;Inomhus&lt;/span&gt;" style="rounded=0;whiteSpace=wrap;html=1;" parent="1" vertex="1">
          <mxGeometry x="70" y="800" width="120" height="60" as="geometry" />
        </mxCell>
        <mxCell id="HfCs5Erz4kINuEijR7L9-33" value="&lt;span style=&quot;line-height: 115%&quot;&gt;&lt;font style=&quot;font-size: 24px&quot;&gt;Sandaler&lt;/font&gt;&lt;/span&gt;" style="rounded=0;whiteSpace=wrap;html=1;" parent="1" vertex="1">
          <mxGeometry x="350" y="870" width="120" height="60" as="geometry" />
        </mxCell>
        <mxCell id="HfCs5Erz4kINuEijR7L9-34" value="&lt;span style=&quot;line-height: 115%&quot;&gt;&lt;font style=&quot;font-size: 24px&quot;&gt;TrÃ¤ning&lt;/font&gt;&lt;/span&gt;" style="rounded=0;whiteSpace=wrap;html=1;" parent="1" vertex="1">
          <mxGeometry x="620" y="800" width="120" height="60" as="geometry" />
        </mxCell>
        <mxCell id="HfCs5Erz4kINuEijR7L9-35" value="&lt;span style=&quot;line-height: 115%&quot;&gt;&lt;font style=&quot;font-size: 24px&quot;&gt;KÃ¤ngor&lt;/font&gt;&lt;/span&gt;" style="rounded=0;whiteSpace=wrap;html=1;" parent="1" vertex="1">
          <mxGeometry x="680" y="630" width="120" height="60" as="geometry" />
        </mxCell>
        <mxCell id="O-Rrw1qbXzoUmUECSiZ4-1" style="rounded=0;orthogonalLoop=1;jettySize=auto;html=1;exitX=0.5;exitY=1;exitDx=0;exitDy=0;entryX=0.5;entryY=0;entryDx=0;entryDy=0;shape=link;" edge="1" source="O-Rrw1qbXzoUmUECSiZ4-2" target="O-Rrw1qbXzoUmUECSiZ4-3" parent="1">
          <mxGeometry relative="1" as="geometry" />
        </mxCell>
        <mxCell id="O-Rrw1qbXzoUmUECSiZ4-2" value="&lt;font style=&quot;font-size: 24px&quot;&gt;Sko&lt;/font&gt;" style="rounded=0;whiteSpace=wrap;html=1;" vertex="1" parent="1">
          <mxGeometry x="1565" y="290" width="120" height="60" as="geometry" />
        </mxCell>
        <mxCell id="O-Rrw1qbXzoUmUECSiZ4-3" value="&lt;font style=&quot;font-size: 24px&quot;&gt;TillhÃ¶r&lt;/font&gt;" style="rhombus;whiteSpace=wrap;html=1;" vertex="1" parent="1">
          <mxGeometry x="1556.25" y="430" width="137.5" height="130" as="geometry" />
        </mxCell>
        <mxCell id="O-Rrw1qbXzoUmUECSiZ4-49" style="edgeStyle=none;shape=link;rounded=0;orthogonalLoop=1;jettySize=auto;html=1;exitX=0.75;exitY=1;exitDx=0;exitDy=0;entryX=0.154;entryY=0.333;entryDx=0;entryDy=0;entryPerimeter=0;" edge="1" parent="1" source="O-Rrw1qbXzoUmUECSiZ4-5" target="O-Rrw1qbXzoUmUECSiZ4-48">
          <mxGeometry relative="1" as="geometry" />
        </mxCell>
        <mxCell id="O-Rrw1qbXzoUmUECSiZ4-5" value="&lt;font style=&quot;font-size: 24px&quot;&gt;Kategori&lt;/font&gt;" style="rounded=0;whiteSpace=wrap;html=1;" vertex="1" parent="1">
          <mxGeometry x="1565" y="640" width="120" height="60" as="geometry" />
        </mxCell>
        <mxCell id="O-Rrw1qbXzoUmUECSiZ4-6" value="" style="endArrow=none;html=1;entryX=0.5;entryY=1;entryDx=0;entryDy=0;exitX=0.5;exitY=0;exitDx=0;exitDy=0;" edge="1" source="O-Rrw1qbXzoUmUECSiZ4-5" target="O-Rrw1qbXzoUmUECSiZ4-3" parent="1">
          <mxGeometry width="50" height="50" relative="1" as="geometry">
            <mxPoint x="1495" y="680" as="sourcePoint" />
            <mxPoint x="1545" y="630" as="targetPoint" />
          </mxGeometry>
        </mxCell>
        <mxCell id="O-Rrw1qbXzoUmUECSiZ4-7" value="&lt;font style=&quot;font-size: 18px&quot;&gt;&lt;b&gt;1..N&lt;/b&gt;&lt;/font&gt;" style="text;html=1;strokeColor=none;fillColor=none;align=center;verticalAlign=middle;whiteSpace=wrap;rounded=0;" vertex="1" parent="1">
          <mxGeometry x="1580" y="390" width="39" height="20" as="geometry" />
        </mxCell>
        <mxCell id="O-Rrw1qbXzoUmUECSiZ4-8" value="&lt;font style=&quot;font-size: 18px&quot;&gt;&lt;b&gt;0..M&lt;/b&gt;&lt;/font&gt;" style="text;html=1;strokeColor=none;fillColor=none;align=center;verticalAlign=middle;whiteSpace=wrap;rounded=0;" vertex="1" parent="1">
          <mxGeometry x="1570" y="580" width="55" height="20" as="geometry" />
        </mxCell>
        <mxCell id="O-Rrw1qbXzoUmUECSiZ4-37" style="shape=link;rounded=0;orthogonalLoop=1;jettySize=auto;html=1;exitX=0.988;exitY=0.321;exitDx=0;exitDy=0;entryX=-0.024;entryY=0.148;entryDx=0;entryDy=0;entryPerimeter=0;exitPerimeter=0;" edge="1" parent="1" source="O-Rrw1qbXzoUmUECSiZ4-32" target="O-Rrw1qbXzoUmUECSiZ4-2">
          <mxGeometry relative="1" as="geometry" />
        </mxCell>
        <mxCell id="O-Rrw1qbXzoUmUECSiZ4-32" value="&lt;font style=&quot;font-size: 24px&quot;&gt;Pris&lt;/font&gt;" style="ellipse;whiteSpace=wrap;html=1;" vertex="1" parent="1">
          <mxGeometry x="1390" y="285" width="110" height="45" as="geometry" />
        </mxCell>
        <mxCell id="O-Rrw1qbXzoUmUECSiZ4-35" style="rounded=0;orthogonalLoop=1;jettySize=auto;html=1;exitX=0.835;exitY=0.926;exitDx=0;exitDy=0;shape=link;entryX=0.5;entryY=0;entryDx=0;entryDy=0;exitPerimeter=0;" edge="1" source="O-Rrw1qbXzoUmUECSiZ4-36" parent="1" target="O-Rrw1qbXzoUmUECSiZ4-2">
          <mxGeometry relative="1" as="geometry">
            <mxPoint x="1590" y="289" as="targetPoint" />
          </mxGeometry>
        </mxCell>
        <mxCell id="O-Rrw1qbXzoUmUECSiZ4-36" value="&lt;font style=&quot;font-size: 24px&quot;&gt;FÃ¤rg&lt;/font&gt;" style="ellipse;whiteSpace=wrap;html=1;" vertex="1" parent="1">
          <mxGeometry x="1490" y="180" width="110" height="50" as="geometry" />
        </mxCell>
        <mxCell id="O-Rrw1qbXzoUmUECSiZ4-41" style="edgeStyle=none;shape=link;rounded=0;orthogonalLoop=1;jettySize=auto;html=1;exitX=1;exitY=0.5;exitDx=0;exitDy=0;" edge="1" parent="1" source="O-Rrw1qbXzoUmUECSiZ4-40">
          <mxGeometry relative="1" as="geometry">
            <mxPoint x="1600" y="289" as="targetPoint" />
          </mxGeometry>
        </mxCell>
        <mxCell id="O-Rrw1qbXzoUmUECSiZ4-40" value="&lt;font style=&quot;font-size: 24px&quot;&gt;Storlek&lt;/font&gt;" style="ellipse;whiteSpace=wrap;html=1;" vertex="1" parent="1">
          <mxGeometry x="1390" y="220" width="110" height="50" as="geometry" />
        </mxCell>
        <mxCell id="O-Rrw1qbXzoUmUECSiZ4-43" style="edgeStyle=none;shape=link;rounded=0;orthogonalLoop=1;jettySize=auto;html=1;exitX=0.5;exitY=1;exitDx=0;exitDy=0;entryX=0.75;entryY=0;entryDx=0;entryDy=0;" edge="1" parent="1" source="O-Rrw1qbXzoUmUECSiZ4-42" target="O-Rrw1qbXzoUmUECSiZ4-2">
          <mxGeometry relative="1" as="geometry">
            <mxPoint x="1630" y="288" as="targetPoint" />
          </mxGeometry>
        </mxCell>
        <mxCell id="O-Rrw1qbXzoUmUECSiZ4-42" value="&lt;font style=&quot;font-size: 24px&quot;&gt;MÃ¤rke&lt;/font&gt;" style="ellipse;whiteSpace=wrap;html=1;" vertex="1" parent="1">
          <mxGeometry x="1619" y="180" width="120" height="50" as="geometry" />
        </mxCell>
        <mxCell id="O-Rrw1qbXzoUmUECSiZ4-46" style="edgeStyle=none;shape=link;rounded=0;orthogonalLoop=1;jettySize=auto;html=1;exitX=1;exitY=0;exitDx=0;exitDy=0;entryX=0.25;entryY=1;entryDx=0;entryDy=0;" edge="1" parent="1" source="O-Rrw1qbXzoUmUECSiZ4-45" target="O-Rrw1qbXzoUmUECSiZ4-5">
          <mxGeometry relative="1" as="geometry" />
        </mxCell>
        <mxCell id="O-Rrw1qbXzoUmUECSiZ4-45" value="&lt;font style=&quot;font-size: 24px&quot;&gt;sko id&lt;/font&gt;" style="ellipse;whiteSpace=wrap;html=1;" vertex="1" parent="1">
          <mxGeometry x="1465" y="730" width="130" height="60" as="geometry" />
        </mxCell>
        <mxCell id="O-Rrw1qbXzoUmUECSiZ4-48" value="&lt;font style=&quot;font-size: 24px&quot;&gt;kategori id&lt;/font&gt;" style="ellipse;whiteSpace=wrap;html=1;" vertex="1" parent="1">
          <mxGeometry x="1660" y="730" width="130" height="60" as="geometry" />
        </mxCell>
        <mxCell id="O-Rrw1qbXzoUmUECSiZ4-50" value="&lt;font style=&quot;font-size: 24px&quot;&gt;BestÃ¤llning&lt;/font&gt;" style="rounded=0;whiteSpace=wrap;html=1;" vertex="1" parent="1">
          <mxGeometry x="2050" y="290" width="180" height="70" as="geometry" />
        </mxCell>
        <mxCell id="O-Rrw1qbXzoUmUECSiZ4-53" value="&lt;font style=&quot;font-size: 24px&quot;&gt;Har&lt;/font&gt;" style="rhombus;whiteSpace=wrap;html=1;" vertex="1" parent="1">
          <mxGeometry x="1800" y="255" width="137.5" height="130" as="geometry" />
        </mxCell>
        <mxCell id="O-Rrw1qbXzoUmUECSiZ4-54" value="" style="endArrow=none;html=1;entryX=1;entryY=0.5;entryDx=0;entryDy=0;exitX=-0.001;exitY=0.441;exitDx=0;exitDy=0;shape=link;exitPerimeter=0;" edge="1" target="O-Rrw1qbXzoUmUECSiZ4-53" parent="1" source="O-Rrw1qbXzoUmUECSiZ4-50">
          <mxGeometry width="50" height="50" relative="1" as="geometry">
            <mxPoint x="2158.75" y="470" as="sourcePoint" />
            <mxPoint x="2078.75" y="460" as="targetPoint" />
          </mxGeometry>
        </mxCell>
        <mxCell id="O-Rrw1qbXzoUmUECSiZ4-55" value="&lt;font style=&quot;font-size: 18px&quot;&gt;&lt;b&gt;1..M&lt;/b&gt;&lt;/font&gt;" style="text;html=1;strokeColor=none;fillColor=none;align=center;verticalAlign=middle;whiteSpace=wrap;rounded=0;" vertex="1" parent="1">
          <mxGeometry x="1970" y="300" width="39" height="20" as="geometry" />
        </mxCell>
        <mxCell id="O-Rrw1qbXzoUmUECSiZ4-56" value="&lt;font style=&quot;font-size: 18px&quot;&gt;&lt;b&gt;0..N&lt;/b&gt;&lt;/font&gt;" style="text;html=1;strokeColor=none;fillColor=none;align=center;verticalAlign=middle;whiteSpace=wrap;rounded=0;" vertex="1" parent="1">
          <mxGeometry x="1720" y="300" width="55" height="20" as="geometry" />
        </mxCell>
        <mxCell id="O-Rrw1qbXzoUmUECSiZ4-58" value="" style="endArrow=none;html=1;exitX=1;exitY=0.5;exitDx=0;exitDy=0;entryX=0;entryY=0.5;entryDx=0;entryDy=0;" edge="1" parent="1" source="O-Rrw1qbXzoUmUECSiZ4-2" target="O-Rrw1qbXzoUmUECSiZ4-53">
          <mxGeometry width="50" height="50" relative="1" as="geometry">
            <mxPoint x="1830" y="580" as="sourcePoint" />
            <mxPoint x="1843" y="435" as="targetPoint" />
          </mxGeometry>
        </mxCell>
        <mxCell id="O-Rrw1qbXzoUmUECSiZ4-61" value="&lt;font style=&quot;font-size: 24px&quot;&gt;Kostnad&lt;/font&gt;" style="ellipse;whiteSpace=wrap;html=1;align=center;dashed=1;" vertex="1" parent="1">
          <mxGeometry x="2020" y="150" width="140" height="60" as="geometry" />
        </mxCell>
        <mxCell id="O-Rrw1qbXzoUmUECSiZ4-62" value="" style="endArrow=none;html=1;entryX=0.5;entryY=1;entryDx=0;entryDy=0;exitX=0.25;exitY=0;exitDx=0;exitDy=0;shape=link;" edge="1" parent="1" source="O-Rrw1qbXzoUmUECSiZ4-50" target="O-Rrw1qbXzoUmUECSiZ4-61">
          <mxGeometry width="50" height="50" relative="1" as="geometry">
            <mxPoint x="2110" y="550" as="sourcePoint" />
            <mxPoint x="2160" y="500" as="targetPoint" />
          </mxGeometry>
        </mxCell>
        <mxCell id="O-Rrw1qbXzoUmUECSiZ4-66" value="&lt;font style=&quot;font-size: 24px&quot;&gt;Gjort&lt;/font&gt;" style="rhombus;whiteSpace=wrap;html=1;" vertex="1" parent="1">
          <mxGeometry x="2080" y="440" width="120" height="110" as="geometry" />
        </mxCell>
        <mxCell id="O-Rrw1qbXzoUmUECSiZ4-67" value="" style="endArrow=none;html=1;entryX=0.5;entryY=1;entryDx=0;entryDy=0;shape=link;" edge="1" parent="1" source="O-Rrw1qbXzoUmUECSiZ4-66" target="O-Rrw1qbXzoUmUECSiZ4-50">
          <mxGeometry width="50" height="50" relative="1" as="geometry">
            <mxPoint x="2100" y="430" as="sourcePoint" />
            <mxPoint x="2150" y="380" as="targetPoint" />
          </mxGeometry>
        </mxCell>
        <mxCell id="O-Rrw1qbXzoUmUECSiZ4-68" value="&lt;span style=&quot;font-size: 18px&quot;&gt;&lt;b&gt;1&lt;/b&gt;&lt;/span&gt;" style="text;html=1;strokeColor=none;fillColor=none;align=center;verticalAlign=middle;whiteSpace=wrap;rounded=0;" vertex="1" parent="1">
          <mxGeometry x="2095" y="390" width="35" height="20" as="geometry" />
        </mxCell>
        <mxCell id="O-Rrw1qbXzoUmUECSiZ4-69" value="" style="endArrow=none;html=1;entryX=0.5;entryY=1;entryDx=0;entryDy=0;exitX=0.5;exitY=0;exitDx=0;exitDy=0;" edge="1" parent="1" source="O-Rrw1qbXzoUmUECSiZ4-70" target="O-Rrw1qbXzoUmUECSiZ4-66">
          <mxGeometry width="50" height="50" relative="1" as="geometry">
            <mxPoint x="2140" y="620" as="sourcePoint" />
            <mxPoint x="2180" y="570" as="targetPoint" />
          </mxGeometry>
        </mxCell>
        <mxCell id="O-Rrw1qbXzoUmUECSiZ4-70" value="&lt;font style=&quot;font-size: 24px&quot;&gt;Kund&lt;/font&gt;" style="rounded=0;whiteSpace=wrap;html=1;" vertex="1" parent="1">
          <mxGeometry x="2090" y="635" width="100" height="50" as="geometry" />
        </mxCell>
        <mxCell id="O-Rrw1qbXzoUmUECSiZ4-71" value="&lt;font style=&quot;font-size: 18px&quot;&gt;&lt;b&gt;0..N&lt;/b&gt;&lt;/font&gt;" style="text;html=1;strokeColor=none;fillColor=none;align=center;verticalAlign=middle;whiteSpace=wrap;rounded=0;" vertex="1" parent="1">
          <mxGeometry x="2090" y="580" width="45" height="20" as="geometry" />
        </mxCell>
        <mxCell id="O-Rrw1qbXzoUmUECSiZ4-72" value="&lt;font style=&quot;font-size: 24px&quot;&gt;Ort&lt;/font&gt;" style="ellipse;whiteSpace=wrap;html=1;" vertex="1" parent="1">
          <mxGeometry x="2020" y="740" width="105" height="40" as="geometry" />
        </mxCell>
        <mxCell id="O-Rrw1qbXzoUmUECSiZ4-74" value="" style="endArrow=none;html=1;entryX=0.133;entryY=0.98;entryDx=0;entryDy=0;exitX=0.571;exitY=0;exitDx=0;exitDy=0;entryPerimeter=0;exitPerimeter=0;" edge="1" parent="1" source="O-Rrw1qbXzoUmUECSiZ4-72" target="O-Rrw1qbXzoUmUECSiZ4-70">
          <mxGeometry width="50" height="50" relative="1" as="geometry">
            <mxPoint x="1970" y="610" as="sourcePoint" />
            <mxPoint x="2020" y="560" as="targetPoint" />
          </mxGeometry>
        </mxCell>
        <mxCell id="O-Rrw1qbXzoUmUECSiZ4-75" value="&lt;font style=&quot;font-size: 12px&quot;&gt;Spenderade pengar&lt;/font&gt;" style="ellipse;whiteSpace=wrap;html=1;align=center;dashed=1;" vertex="1" parent="1">
          <mxGeometry x="2150" y="740" width="100" height="40" as="geometry" />
        </mxCell>
        <mxCell id="O-Rrw1qbXzoUmUECSiZ4-76" value="" style="endArrow=none;html=1;entryX=0.899;entryY=0.991;entryDx=0;entryDy=0;entryPerimeter=0;exitX=0.5;exitY=0;exitDx=0;exitDy=0;" edge="1" parent="1" source="O-Rrw1qbXzoUmUECSiZ4-75" target="O-Rrw1qbXzoUmUECSiZ4-70">
          <mxGeometry width="50" height="50" relative="1" as="geometry">
            <mxPoint x="2280" y="740" as="sourcePoint" />
            <mxPoint x="2330" y="690" as="targetPoint" />
          </mxGeometry>
        </mxCell>
        <mxCell id="O-Rrw1qbXzoUmUECSiZ4-78" value="&lt;font style=&quot;font-size: 24px&quot;&gt;SÃ¥lda&lt;/font&gt;" style="ellipse;whiteSpace=wrap;html=1;align=center;dashed=1;" vertex="1" parent="1">
          <mxGeometry x="1410" y="350" width="100" height="40" as="geometry" />
        </mxCell>
        <mxCell id="O-Rrw1qbXzoUmUECSiZ4-79" value="" style="endArrow=none;html=1;entryX=0;entryY=0.5;entryDx=0;entryDy=0;shape=link;" edge="1" parent="1" source="O-Rrw1qbXzoUmUECSiZ4-78" target="O-Rrw1qbXzoUmUECSiZ4-2">
          <mxGeometry width="50" height="50" relative="1" as="geometry">
            <mxPoint x="1290" y="460" as="sourcePoint" />
            <mxPoint x="1340" y="410" as="targetPoint" />
          </mxGeometry>
        </mxCell>
      </root>
    </mxGraphModel>
  </diagram>
</mxfile>
